<svg width="2560" height="1600" viewBox="0 0 2560 1600" fill="none" xmlns="http://www.w3.org/2000/svg">
<path d="M424.483 378.364V742H380.449V424.528H378.318L289.54 483.477V438.733L380.449 378.364H424.483Z" fill="black"/>
<path d="M647.672 746.972C620.92 746.972 598.134 739.692 579.313 725.132C560.492 710.454 546.109 689.206 536.166 661.389C526.223 633.454 521.251 599.718 521.251 560.182C521.251 520.883 526.223 487.324 536.166 459.507C546.228 431.572 560.669 410.265 579.49 395.587C598.429 380.79 621.157 373.392 647.672 373.392C674.187 373.392 696.855 380.79 715.676 395.587C734.616 410.265 749.057 431.572 759 459.507C769.062 487.324 774.092 520.883 774.092 560.182C774.092 599.718 769.121 633.454 759.178 661.389C749.234 689.206 734.852 710.454 716.031 725.132C697.21 739.692 674.424 746.972 647.672 746.972ZM647.672 707.909C674.187 707.909 694.784 695.125 709.462 669.557C724.14 643.989 731.479 607.53 731.479 560.182C731.479 528.695 728.105 501.884 721.358 479.749C714.729 457.613 705.141 440.745 692.594 429.145C680.165 417.545 665.191 411.744 647.672 411.744C621.393 411.744 600.856 424.706 586.06 450.629C571.263 476.434 563.865 512.952 563.865 560.182C563.865 591.669 567.179 618.421 573.808 640.438C580.437 662.455 589.966 679.204 602.395 690.686C614.942 702.168 630.035 707.909 647.672 707.909Z" fill="black"/>
<path d="M860.119 744.841C851.359 744.841 843.843 741.704 837.569 735.43C831.295 729.157 828.158 721.64 828.158 712.881C828.158 704.121 831.295 696.605 837.569 690.331C843.843 684.057 851.359 680.921 860.119 680.921C868.878 680.921 876.395 684.057 882.668 690.331C888.942 696.605 892.079 704.121 892.079 712.881C892.079 718.681 890.599 724.008 887.64 728.861C884.799 733.714 880.952 737.62 876.099 740.58C871.364 743.42 866.037 744.841 860.119 744.841Z" fill="black"/>
<path d="M966.564 742V710.04L1086.59 578.648C1100.68 563.26 1112.28 549.884 1121.39 538.52C1130.51 527.038 1137.26 516.266 1141.63 506.205C1146.13 496.025 1148.38 485.371 1148.38 474.244C1148.38 461.46 1145.3 450.393 1139.15 441.041C1133.11 431.69 1124.83 424.469 1114.29 419.379C1103.76 414.289 1091.92 411.744 1078.78 411.744C1064.81 411.744 1052.62 414.644 1042.2 420.445C1031.9 426.126 1023.91 434.117 1018.23 444.415C1012.67 454.713 1009.89 466.787 1009.89 480.636H967.984C967.984 459.33 972.897 440.627 982.722 424.528C992.546 408.43 1005.92 395.883 1022.85 386.886C1039.89 377.89 1059.01 373.392 1080.2 373.392C1101.51 373.392 1120.39 377.89 1136.84 386.886C1153.29 395.883 1166.2 408.016 1175.55 423.286C1184.9 438.555 1189.58 455.542 1189.58 474.244C1189.58 487.62 1187.15 500.7 1182.3 513.484C1177.56 526.15 1169.27 540.296 1157.44 555.921C1145.72 571.427 1129.44 590.367 1108.61 612.739L1026.93 700.097V702.938H1195.97V742H966.564Z" fill="black"/>
<path d="M1269.3 742V710.04L1389.33 578.648C1403.41 563.26 1415.01 549.884 1424.13 538.52C1433.24 527.038 1439.99 516.266 1444.37 506.205C1448.87 496.025 1451.12 485.371 1451.12 474.244C1451.12 461.46 1448.04 450.393 1441.88 441.041C1435.85 431.69 1427.56 424.469 1417.03 419.379C1406.49 414.289 1394.65 411.744 1381.51 411.744C1367.55 411.744 1355.35 414.644 1344.94 420.445C1334.64 426.126 1326.65 434.117 1320.97 444.415C1315.4 454.713 1312.62 466.787 1312.62 480.636H1270.72C1270.72 459.33 1275.63 440.627 1285.46 424.528C1295.28 408.43 1308.66 395.883 1325.58 386.886C1342.63 377.89 1361.75 373.392 1382.93 373.392C1404.24 373.392 1423.12 377.89 1439.58 386.886C1456.03 395.883 1468.93 408.016 1478.28 423.286C1487.63 438.555 1492.31 455.542 1492.31 474.244C1492.31 487.62 1489.88 500.7 1485.03 513.484C1480.3 526.15 1472.01 540.296 1460.17 555.921C1448.45 571.427 1432.18 590.367 1411.34 612.739L1329.67 700.097V702.938H1498.7V742H1269.3Z" fill="black"/>
<path d="M1603.28 744.841C1594.52 744.841 1587.01 741.704 1580.73 735.43C1574.46 729.157 1571.32 721.64 1571.32 712.881C1571.32 704.121 1574.46 696.605 1580.73 690.331C1587.01 684.057 1594.52 680.921 1603.28 680.921C1612.04 680.921 1619.56 684.057 1625.83 690.331C1632.11 696.605 1635.24 704.121 1635.24 712.881C1635.24 718.681 1633.76 724.008 1630.8 728.861C1627.96 733.714 1624.12 737.62 1619.26 740.58C1614.53 743.42 1609.2 744.841 1603.28 744.841Z" fill="black"/>
<path d="M1794.11 378.364V742H1750.08V424.528H1747.95L1659.17 483.477V438.733L1750.08 378.364H1794.11Z" fill="black"/>
<path d="M1898.69 742V710.04L2018.72 578.648C2032.81 563.26 2044.41 549.884 2053.52 538.52C2062.64 527.038 2069.38 516.266 2073.76 506.205C2078.26 496.025 2080.51 485.371 2080.51 474.244C2080.51 461.46 2077.43 450.393 2071.28 441.041C2065.24 431.69 2056.96 424.469 2046.42 419.379C2035.89 414.289 2024.05 411.744 2010.91 411.744C1996.94 411.744 1984.75 414.644 1974.33 420.445C1964.03 426.126 1956.04 434.117 1950.36 444.415C1944.8 454.713 1942.02 466.787 1942.02 480.636H1900.11C1900.11 459.33 1905.03 440.627 1914.85 424.528C1924.68 408.43 1938.05 395.883 1954.98 386.886C1972.02 377.89 1991.14 373.392 2012.33 373.392C2033.64 373.392 2052.52 377.89 2068.97 386.886C2085.42 395.883 2098.33 408.016 2107.68 423.286C2117.03 438.555 2121.7 455.542 2121.7 474.244C2121.7 487.62 2119.28 500.7 2114.42 513.484C2109.69 526.15 2101.4 540.296 2089.57 555.921C2077.85 571.427 2061.57 590.367 2040.74 612.739L1959.06 700.097V702.938H2128.1V742H1898.69Z" fill="black"/>
</svg>
