<svg width="600" height="500" viewBox="0 0 600 500" fill="none" xmlns="http://www.w3.org/2000/svg">
<path fill-rule="evenodd" clip-rule="evenodd" d="M74.6776 192.193C41.4218 206.387 22.1905 217.313 12.7382 223.273C12.8446 224.025 12.9524 224.776 13.0603 225.527C13.7373 230.241 14.4145 234.958 14.7327 239.73C15.6561 253.581 17.7826 267.257 20.1379 280.907C33.67 274.148 55.4938 264.475 88.2611 253.104C86.2305 245.767 83.9461 238.467 81.7122 231.328C81.127 229.458 80.5452 227.599 79.9724 225.753C78.6215 221.4 77.8434 217.051 77.0498 212.614C76.9297 211.943 76.8092 211.269 76.6863 210.594C75.7995 205.716 75.2068 199.689 75.0652 194.733C75.0407 193.876 74.8991 193.03 74.6776 192.193ZM458.589 171.343C494.038 166.681 521.211 164.304 541.738 163.22C543.582 159.811 545.445 156.416 547.303 153.031C550.054 148.018 552.794 143.025 555.447 138.037C557.949 133.332 560.618 128.732 563.287 124.131C565.834 119.741 568.38 115.352 570.782 110.872C575.274 102.493 576.957 93.7353 578.231 84.3641C578.845 79.8459 579.275 75.3716 579.484 70.9269C563.6 70.9648 533.69 72.7111 482.578 81.0596C482.313 81.9877 482.046 82.9154 481.779 83.8431C480.052 89.842 478.326 95.8378 477.107 101.934C476.437 105.282 475.412 108.557 474.388 111.83C473.677 114.104 472.966 116.376 472.375 118.671C471 124.008 469.69 129.488 469.439 135.014C469.433 135.158 469.427 135.299 469.421 135.437C469.355 136.991 469.306 138.146 468.607 139.614C467.232 142.501 466.89 145.487 466.547 148.477C466.329 150.377 466.111 152.28 465.627 154.161C464.386 158.989 462.06 163.94 459.849 168.644C459.422 169.554 458.999 170.455 458.589 171.343Z" fill="#FCD164"/>
<path fill-rule="evenodd" clip-rule="evenodd" d="M74.6777 192.193C74.19 190.351 73.3151 188.553 72.4525 186.781C71.818 185.477 71.1901 184.187 70.7276 182.903C68.1661 175.787 66.4222 167.874 64.8127 160.47L60.8694 147.063C60.0185 145.361 59.4354 143.524 58.846 141.667C57.9264 138.77 56.991 135.823 54.9982 133.261C49.192 125.796 38.4231 121.837 29.2353 125.856C11.0272 133.823 9.60645 153.776 9.60645 171.686C9.60645 182.981 10.3118 194.181 11.0203 205.431C11.1341 207.238 11.248 209.046 11.359 210.857C11.6147 215.025 12.1545 219.152 12.7383 223.274C22.1907 217.313 41.422 206.387 74.6777 192.193ZM579.484 70.9273C563.6 70.9651 533.69 72.7114 482.578 81.0599C483.661 77.2703 484.713 73.4732 485.607 69.6425C486.041 67.7801 486.441 65.9103 486.84 64.042C487.731 59.8663 488.622 55.6979 489.901 51.6348C490.61 49.3824 491.184 47.0162 491.761 44.6373C492.81 40.3105 493.87 35.9414 495.772 32.1373C500.664 22.3539 510.697 11.4131 522.63 11.4131C524.283 11.4131 525.954 11.3964 527.634 11.3796C540.552 11.2504 554.08 11.1152 565.174 18.511C570.536 22.086 573.557 28.3648 575.339 34.3719C578.947 46.531 580.064 58.6154 579.484 70.9273Z" fill="#ADFCCF"/>
<path fill-rule="evenodd" clip-rule="evenodd" d="M88.2612 253.104C55.494 264.475 33.6701 274.148 20.1379 280.907C20.6877 284.093 21.2499 287.278 21.8122 290.463C23.8765 302.155 25.9418 313.854 27.3951 325.65C27.525 326.705 27.5596 328.019 27.5966 329.425C27.6792 332.568 27.7741 336.175 28.9724 338.4C29.294 338.998 29.5926 339.611 29.8736 340.235C46.9488 333.408 72.0036 324.66 107.177 315.102C105.322 311.657 104.254 307.701 103.282 304.006C101.885 298.697 100.323 293.106 98.3745 287.97C97.9012 286.722 97.3895 285.443 96.8697 284.144C95.1834 279.93 93.4124 275.504 92.591 271.233C91.433 265.211 89.9331 259.145 88.2612 253.104ZM414.196 261.239C453.656 256.954 485.356 254.605 510.624 253.463C511.203 250.417 511.75 247.361 512.298 244.305C514.218 233.581 516.139 222.855 519.432 212.521C524.882 195.42 533.111 179.161 541.738 163.22C521.211 164.305 494.037 166.681 458.589 171.344C458.495 171.546 458.402 171.748 458.31 171.949C455.727 177.6 453.469 183.367 451.215 189.123C449.385 193.798 447.557 198.465 445.56 203.058C445.007 204.331 444.467 205.689 443.917 207.07C442.683 210.171 441.403 213.389 439.821 216.027C438.008 219.048 436.165 221.985 434.338 224.898C428.827 233.683 423.457 242.243 419.469 252.213C416.588 255.094 415.598 257.647 414.694 259.982C414.529 260.408 414.366 260.827 414.196 261.239Z" fill="#51E3B8"/>
<path fill-rule="evenodd" clip-rule="evenodd" d="M107.177 315.101C72.0036 324.66 46.9487 333.407 29.8737 340.235C30.7342 342.146 31.4299 344.162 32.1158 346.149C32.3809 346.917 32.6446 347.681 32.9157 348.433C36.5287 358.454 41.7466 367.555 47.0012 376.72C48.0309 378.516 49.0621 380.314 50.0829 382.123C71.4929 377.244 100.159 371.924 137.568 367.161C136.875 366.318 136.171 365.502 135.442 364.732C129.358 358.311 124.181 351.369 121.991 343.044C121.195 340.021 120.22 337.169 119.232 334.281C118.909 333.338 118.586 332.391 118.266 331.433C116.963 327.525 114.49 324.597 111.969 321.614C110.846 320.284 109.713 318.943 108.671 317.5C108.12 316.738 107.626 315.935 107.177 315.101ZM344.434 353.249C401.568 351.911 446.882 352.425 482.593 353.89C492.846 325.612 500.442 296.234 507.689 267.114C508.811 262.605 509.754 258.044 510.624 253.462C485.355 254.604 453.656 256.953 414.196 261.239C413.579 262.73 412.855 264.136 411.505 265.486C408.94 268.051 407.332 271.406 405.724 274.76C404.145 278.054 402.566 281.348 400.081 283.895C398.986 285.016 398.177 286.296 397.374 287.566C396.67 288.68 395.97 289.787 395.086 290.773C392.326 293.852 390.385 297.603 388.439 301.363C386.597 304.922 384.751 308.488 382.205 311.498C378.582 315.779 374.851 320.507 371.602 325.124C369.176 328.571 365.758 331.692 362.457 334.705C360.947 336.083 359.461 337.439 358.107 338.794C356.886 340.015 355.644 341.2 354.407 342.38C350.833 345.789 347.302 349.158 344.434 353.249Z" fill="#FF6B3A"/>
<path fill-rule="evenodd" clip-rule="evenodd" d="M438.159 433.926C404.206 430.323 363.918 426.918 316.24 424.03C205.649 417.331 129.865 419.84 80.2682 424.503C86.7777 430.876 93.5744 437.041 100.827 442.547C102.906 444.125 105.564 446.054 108.188 446.929C110.686 447.762 113.621 448.19 116.372 448.592C117.17 448.709 117.952 448.823 118.704 448.944C130.284 450.812 142.556 450.48 154.57 450.155C159.144 450.031 163.68 449.908 168.127 449.908C172.277 449.908 176.428 449.895 180.58 449.882C195.052 449.836 209.531 449.79 223.99 450.303C237.94 450.797 252.156 451.495 265.877 454.29C272.222 455.582 278.418 457.817 284.553 460.029C286.32 460.667 288.083 461.303 289.843 461.913C299.095 465.125 308.638 467.515 318.147 469.8C320.813 470.441 323.434 471.124 326.036 471.803C335.122 474.172 343.972 476.48 353.637 476.679C361.717 476.846 368.066 476.139 375.676 473.042C387.856 468.085 401.094 462.629 412.086 455.341C421.163 449.322 430.151 442.038 438.159 433.926Z" fill="#FB7454"/>
<path fill-rule="evenodd" clip-rule="evenodd" d="M137.567 367.162C100.159 371.924 71.4928 377.244 50.0827 382.123C50.5111 382.882 50.9377 383.643 51.3616 384.406C59.0788 398.297 67.0285 411.371 78.3951 422.656C79.017 423.273 79.6414 423.889 80.2685 424.503C129.865 419.84 205.65 417.331 316.24 424.03C363.919 426.918 404.207 430.323 438.159 433.926C443.896 428.115 449.13 421.88 453.535 415.382C464.295 399.509 471.773 381.969 478.728 364.163C480.059 360.757 481.346 357.332 482.594 353.89C446.883 352.426 401.568 351.911 344.434 353.25C344.181 353.61 343.934 353.976 343.692 354.349C342.485 356.205 340.097 357.931 338.303 359.212C336.467 360.523 334.978 362.18 333.482 363.844C331.792 365.725 330.092 367.616 327.875 369.027C327.104 369.517 326.316 370.007 325.519 370.502C321.09 373.253 316.424 376.152 313.275 380.112C312.708 380.825 312.217 381.478 311.767 382.077C309.349 385.298 308.126 386.927 302.655 387.611C299.243 388.037 296.203 389.971 293.163 391.904C289.748 394.075 286.334 396.246 282.395 396.279C280.823 396.293 279.263 396.264 277.715 396.235C271.5 396.119 265.475 396.007 259.612 398.645C257.889 399.42 256.002 399.751 254.125 400.079C253.199 400.241 252.275 400.403 251.375 400.617C250.116 400.917 248.848 401.325 247.573 401.735C245.037 402.552 242.472 403.377 239.895 403.377C230.221 403.377 221.252 401.946 211.669 400.417C211.264 400.352 210.859 400.287 210.452 400.223C209.033 399.997 207.624 399.75 206.218 399.504C201.493 398.677 196.809 397.857 191.962 397.857C190.411 397.857 189.616 397.585 188.194 397.068C185.865 396.221 183.603 395.256 181.347 394.294C177.991 392.863 174.647 391.436 171.107 390.408C164.688 388.545 159.198 385.38 153.58 382.141C152.406 381.464 151.227 380.784 150.032 380.112C145.862 377.766 142.841 373.885 139.881 370.082C139.112 369.094 138.347 368.111 137.567 367.162Z" fill="#35BDD6"/>
</svg>
