<svg width="1200" height="600" viewBox="0 0 1200 600" fill="none" xmlns="http://www.w3.org/2000/svg">
<g clip-path="url(#clip0_2_5)">
<path d="M1188.78 207.235L1188.94 207.125C1216.16 187.52 1243.74 167.843 1277.75 160.828L1277.75 643L-88 643L-131.399 472.14C-98.7984 479.688 -65.5631 487.632 -31.5467 480.798C2.71159 473.915 29.8865 454.281 57.1121 434.612L57.2644 434.502L58.0199 433.958C85.1676 414.409 112.069 395.038 146.075 388.205C180.083 381.373 212.379 388.85 244.971 396.396L245.876 396.605L246.783 396.815C279.375 404.361 311.67 411.838 345.677 405.006C379.935 398.122 407.11 378.489 434.336 358.819L434.488 358.709L435.242 358.166C462.391 338.617 489.292 319.246 523.299 312.413C557.558 305.53 590.207 313.143 622.917 320.77L623.1 320.813L624.006 321.023C656.598 328.569 688.893 336.046 722.901 329.213C757.159 322.33 784.334 302.697 811.56 283.027L811.712 282.917L812.468 282.373C839.615 262.824 866.516 243.453 900.523 236.621C934.781 229.738 967.431 237.351 1000.14 244.978L1000.32 245.021L1001.23 245.231C1033.82 252.776 1066.12 260.254 1100.12 253.421C1134.38 246.538 1161.56 226.905 1188.78 207.235Z" fill="#E3E8DB"/>
</g>
<defs>
<clipPath id="clip0_2_5">
<rect width="1200" height="600" fill="white"/>
</clipPath>
</defs>
</svg>
