<svg width="800" height="600" viewBox="0 0 800 600" fill="none" xmlns="http://www.w3.org/2000/svg">
<path d="M75.5 37.375V41.5V37.375ZM75.5 107.5V111.625V107.5ZM112.625 74.5H108.5H112.625ZM42.5 74.5H38.375H42.5ZM101.752 100.752L98.8351 97.8351L101.752 100.752ZM52.1649 51.1649L49.2485 48.2485L52.1649 51.1649ZM101.752 48.2485L98.8351 51.1649L101.752 48.2485ZM52.1649 97.8351L49.2485 100.752L52.1649 97.8351ZM92 74.5C92 78.8761 90.2616 83.0729 87.1673 86.1673C84.0729 89.2616 79.8761 91 75.5 91C71.1239 91 66.9271 89.2616 63.8327 86.1673C60.7384 83.0729 59 78.8761 59 74.5C59 70.1239 60.7384 65.9271 63.8327 62.8327C66.9271 59.7384 71.1239 58 75.5 58C79.8761 58 84.0729 59.7384 87.1673 62.8327C90.2616 65.9271 92 70.1239 92 74.5V74.5Z" stroke="#FFC42D" stroke-width="8.25" stroke-linecap="round" stroke-linejoin="round"/>
</svg>
