<svg width="1200" height="600" viewBox="0 0 1200 600" fill="none" xmlns="http://www.w3.org/2000/svg">
<g clip-path="url(#clip0_2_8)">
<path d="M1788 757.556L1788.3 757.098C1841.95 675.652 1896.14 594.247 1947.51 598.236L1895.78 1118.67L-234.513 906.926L-199.814 557.837C-163.339 648.021 -126.377 741.471 -75.1503 746.563C-23.5591 751.691 30.0517 670.001 83.7623 588.16L84.0629 587.702L85.5516 585.442C139.051 504.226 192.064 423.748 243.276 428.84C294.489 433.93 330.623 523.27 367.089 613.429L368.102 615.934L369.117 618.443C405.582 708.601 441.716 797.94 492.929 803.029C544.52 808.157 598.131 726.467 651.841 644.625L652.142 644.167L653.628 641.911C707.128 560.694 760.142 480.215 811.355 485.305C862.946 490.433 899.427 581.077 935.976 671.89L936.181 672.4L937.194 674.905C973.66 765.064 1009.79 854.404 1061.01 859.494C1112.6 864.622 1166.21 782.932 1219.92 701.09L1220.22 700.632L1221.71 698.372C1275.21 617.156 1328.22 536.679 1379.43 541.771C1431.03 546.899 1467.51 637.544 1504.06 728.358L1504.26 728.865L1505.27 731.369C1541.74 821.529 1577.87 910.869 1629.09 915.96C1680.68 921.088 1734.29 839.398 1788 757.556Z" fill="#E8DCDB"/>
</g>
<defs>
<clipPath id="clip0_2_8">
<rect width="1200" height="600" fill="white"/>
</clipPath>
</defs>
</svg>
