<svg width="1280" height="2304" viewBox="0 0 1280 2304" fill="none" xmlns="http://www.w3.org/2000/svg">
<path id="bottomR" d="M1200 2304V2033L789 2304H1200Z" fill="#D9D9D9" fill-opacity="0.75"/>
<path id="bottomL" d="M411 2304L0 2032.5V2304H411Z" fill="#D9D9D9" fill-opacity="0.75"/>
<path id="outR" d="M844.382 2121.83L835.42 2114.7C831.225 2111.36 831.434 2104.92 835.838 2101.86L1099.34 1918.96C1099.78 1918.65 1100.19 1918.3 1100.56 1917.92L1108.85 1909.25C1110.23 1907.8 1111.02 1905.89 1111.06 1903.89L1113.4 1789.65C1113.46 1787.07 1115.57 1785 1118.16 1785C1120.82 1785 1122.96 1787.18 1122.91 1789.84L1120.08 1936.37C1120.03 1938.96 1118.73 1941.37 1116.59 1942.83L853.873 2122.17C850.976 2124.15 847.128 2124.01 844.382 2121.83Z" fill="#D9D9D9" fill-opacity="0.75"/>
<path id="outL" d="M356.618 2121.33L365.58 2114.2C369.775 2110.86 369.566 2104.42 365.162 2101.36L101.662 1918.46C101.222 1918.15 100.813 1917.8 100.443 1917.42L92.1534 1908.75C90.7684 1907.3 89.9772 1905.39 89.9362 1903.39L87.5954 1789.15C87.5424 1786.57 85.4309 1784.5 82.8445 1784.5C80.1842 1784.5 78.0421 1786.68 78.0934 1789.34L80.9204 1935.87C80.9703 1938.46 82.27 1940.87 84.4084 1942.33L347.127 2121.67C350.024 2123.65 353.872 2123.51 356.618 2121.33Z" fill="#D9D9D9" fill-opacity="0.75"/>
<path id="bumpBR" d="M892.083 1922.98L987.89 1630.52C990.044 1623.95 996.178 1619.5 1003.1 1619.5H1020C1028.84 1619.5 1036 1626.66 1036 1635.5V1851.52C1036 1856.82 1033.37 1861.78 1028.98 1864.76L916.269 1941.21C903.642 1949.77 887.334 1937.48 892.083 1922.98Z" fill="#D9D9D9" fill-opacity="0.75"/>
<path id="bumpBL" d="M307.917 1923.48L212.11 1631.02C209.956 1624.45 203.822 1620 196.905 1620H180C171.163 1620 164 1627.16 164 1636V1852.02C164 1857.32 166.629 1862.28 171.019 1865.26L283.731 1941.71C296.358 1950.27 312.666 1937.98 307.917 1923.48Z" fill="#D9D9D9" fill-opacity="0.75"/>
<path id="startRT" d="M1271 565H1280V1672L1271 1681.5V565Z" fill="#D4D4D4" fill-opacity="0.75"/>
<path id="startRB" d="M1271 1813L1280 1803V2304H1271V1813Z" fill="#D4D4D4" fill-opacity="0.75"/>
<rect id="startL" x="1200" y="1419" width="9" height="885" fill="#D4D4D4" fill-opacity="0.75"/>
<path id="sideML" d="M0 796H78.5L110.5 907.5H62.5V952L76.5 980H0V796Z" fill="#D9D9D9" fill-opacity="0.75"/>
<path id="sideMR" d="M1144.25 1017.37C1140.24 1015.69 1138.09 1011.21 1139.46 1007.09L1271 611V1138.5L1210.31 1106.54C1207.41 1105.01 1205.72 1101.86 1205.72 1098.58C1205.74 1089.29 1204.19 1069.49 1192.5 1050.5C1183.06 1035.16 1157.02 1022.74 1144.25 1017.37Z" fill="#D4D4D4" fill-opacity="0.75"/>
<path id="sideDL" d="M0 1581.5V1148C0 1148 36.1445 1263 43.5 1278C50.8555 1293 127.5 1381.5 127.5 1397C127.5 1412.5 0 1581.5 0 1581.5Z" fill="#D9D9D9" fill-opacity="0.75"/>
<path id="loop0I" d="M149 509C170.115 283 375.658 102 655.254 102C934.851 102 1160 274 1160 509C1160 509 1159.5 510.124 1158.57 512.233C1159.25 513.315 1159.62 514.614 1159.56 516.043C1158.85 531.92 1152.86 575.966 1114.5 661.5C1076.17 746.981 1060.46 797.198 1051.84 824.766C1049.22 833.157 1047.25 839.45 1045.5 844C1038.62 861.882 1031.32 880.605 1030.16 883.589C1030.09 883.779 1030.01 883.961 1029.92 884.141C1029.88 884.228 1029.83 884.315 1029.79 884.402L1011 920C986.59 955.37 964.165 972.375 964.001 972.499L963.992 972.506L893.5 1025.5L833.596 1076C833.2 1076.33 832.837 1076.7 832.512 1077.11L794.622 1124.35C794.541 1124.45 794.462 1124.55 794.386 1124.66C792.054 1127.88 754.718 1179.6 746 1198C739.293 1212.16 709.263 1270.47 694.395 1299.26C691.193 1305.46 682.156 1304.85 679.787 1298.28L599.402 1075.54C597.831 1071.19 600.126 1066.45 604.562 1065.13C646.497 1052.7 774 1013 886 965.5C944 940.902 985.66 900.5 1030.16 820C1075.66 710.5 1073.5 538.5 946 413.5C818.5 288.5 662.5 342.5 662.5 342.5L149 509Z" fill="#D9D9D9" fill-opacity="0.75"/>
<path id="loop0O" d="M1280 0H0V796H78.4795C59.3094 725.788 48.9999 648.149 49 565.5C49 259.81 322.554 12 660 12C997.446 12 1271 259.81 1271 565.5H1280V0Z" fill="#D9D9D9" fill-opacity="0.7"/>
<path id="loop1I" d="M604.5 448.5C604.5 448.5 804 353.5 917 506.5C975 637.5 976 673 946.5 773.5C924.57 848.211 783.271 897.777 712.199 918.296C703.713 920.746 699.085 910.31 706.397 905.355L794 846L737 736.5L591.5 809L519 785H498.789C494.873 785 491.532 782.166 490.895 778.302L484 736.5L361.475 775.614C357.323 776.939 352.875 774.698 351.469 770.573L331 710.5L222 746L258.397 877.88C259.562 882.103 257.114 886.478 252.906 887.694L245.776 889.754C241.496 890.99 237.031 888.493 235.844 884.199L158 602.5L604.5 448.5Z" fill="#D9D9D9" fill-opacity="0.75"/>
</svg>
