<svg width="1280" height="2304" viewBox="0 0 1280 2304" fill="none" xmlns="http://www.w3.org/2000/svg">
<g id="layer1">
<path id="loop1R" d="M1119.64 1115.28L1189.36 1153.72C1191.91 1155.13 1193.5 1157.81 1193.5 1160.72V1728.5C1193.5 1728.5 1186.93 1759.98 1167 1780.5C1154.83 1793.03 1132.16 1797.1 1120.26 1798.4C1115.95 1798.87 1112.5 1802.45 1112.5 1806.79V1880H1280V392H1019C1106.5 392 1115.5 469 1115.5 469V1108.28C1115.5 1111.19 1117.08 1113.87 1119.64 1115.28Z" fill="#FDAAAA" fill-opacity="0.75"/>
<path id="loop1L" d="M696 966C696 966 689.5 999 737.001 1023L1110.08 1209.79C1112.79 1211.14 1114.5 1213.91 1114.5 1216.94V1696C1114.5 1700.42 1110.92 1704 1106.5 1704H1026L1025 1879H655V966H696Z" fill="#FDAAAA" fill-opacity="0.75"/>
<path id="loop1IR" d="M1022 506.5C1026.66 500.399 1036.42 503.697 1036.38 511.372L1033.57 1055.21C1033.54 1061.12 1027.33 1064.96 1022.03 1062.35L794.464 950.2C791.731 948.853 790 946.071 790 943.024V856.952C790 853.918 791.645 851.176 794.322 849.747C819.11 836.509 944.201 765.454 1003.5 650C1003.5 650 1010.09 644 1015 598.5C1019.91 553 1022 506.5 1022 506.5V506.5Z" fill="#FDAAAA" fill-opacity="0.75"/>
<path id="loop1IL" d="M519.077 133.473C523.468 132.979 526.999 136.582 526.999 141V348.395C526.999 351.76 529.105 354.766 532.269 355.914L695.121 415.048C698.338 416.216 700.455 419.3 700.389 422.721L694 755.5L600.272 799.207C598.487 800.04 596.458 800.184 594.572 799.613L509.999 774.001H363.17C360.023 774.001 357.224 772.273 355.98 769.382C341.951 736.763 260.289 538.092 284.999 388.001C310.874 230.835 454.764 140.711 519.077 133.473Z" fill="#FDAAAA" fill-opacity="0.75"/>
<path id="loop1U" d="M258.5 884L173 589C173 589 114.5 420.5 208 280.5C379.973 23 581 23 581 23H990.5V120.161C990.5 122.868 989.132 125.39 986.864 126.867L962.564 142.68C960.336 144.131 958.973 146.594 958.929 149.252L955.59 349.587C955.536 352.856 953.497 355.764 950.441 356.929L790.15 418.037C787.049 419.219 785 422.193 785 425.512V706C785 706 862 683.5 901.5 635C941 586.5 924 474.5 924 474.5C924 474.5 931.095 394.93 1019 392H1280V0H0V884H258.5Z" fill="#FDAAAA" fill-opacity="0.75"/>
<rect id="blockL" x="596" y="187" width="53" height="108" rx="16" fill="#FDAAAA" fill-opacity="0.75"/>
<rect id="blockM" x="715" y="212" width="53" height="108" rx="16" fill="#FDAAAA" fill-opacity="0.75"/>
<rect id="blockR" x="834" y="187" width="53" height="108" rx="16" fill="#FDAAAA" fill-opacity="0.75"/>
<path id="loop2L" d="M0 1732V1877.5L71.9993 1878V1796.5C8 1788 0 1732 0 1732Z" fill="#FDAAAA" fill-opacity="0.75"/>
<path id="loop2R" d="M99.5859 981V1697.5C99.5859 1701.92 103.168 1705.5 107.586 1705.5H185.184V1877.5L258.5 1878V884H0V981H99.5859Z" fill="#FDAAAA" fill-opacity="0.75"/>
</g>
</svg>
